<?xml version="1.0" encoding="UTF-8"?>
<svg version="1.1" viewBox="0 0 156 104" xmlns="http://www.w3.org/2000/svg">
<title>2css logo</title>
<g fill="none" fill-opacity=".8" fill-rule="evenodd">
<g transform="translate(-2 -52)" fill="#000" fill-rule="nonzero">
<path d="m69.492 156 0.5127-0.80566c-0.29297-1.5625-0.43945-3.4668-0.43945-5.7129 0-2.4902 0.14648-4.6631 0.43945-6.5186l-0.5127-0.58594c-6.2012 0.63477-12.524 0.95215-18.97 0.95215h-32.153c2.3438-2.6855 5.7861-6.2988 10.327-10.84l12.524-12.451c9.4727-9.4238 15.71-16.98 18.713-22.668 3.0029-5.6885 4.5044-11.462 4.5044-17.322 0-5.4199-1.3184-10.278-3.9551-14.575-2.6367-4.2969-6.1523-7.5317-10.547-9.7046-4.3945-2.1729-9.79-3.2593-16.187-3.2593-3.5645 0-6.8604 0.37842-9.8877 1.1353-3.0273 0.75684-5.5786 1.77-7.6538 3.0396-2.0752 1.2695-4.6509 3.3691-7.7271 6.2988-0.48828 6.9336-1.3184 13.672-2.4902 20.215h4.3945c1.9531-7.2754 3.4302-11.682 4.4312-13.22 1.001-1.5381 2.9663-2.9419 5.896-4.2114s6.3477-1.9043 10.254-1.9043c6.9824 0 12.305 2.4658 15.967 7.3975 2.832 3.7109 4.248 8.1055 4.248 13.184 0 2.9785-0.48828 6.1157-1.4648 9.4116s-2.5146 6.6895-4.6143 10.181c-2.0996 3.4912-5.0049 7.3608-8.7158 11.609-4.9316 5.5664-8.0322 9.0088-9.3018 10.327l-16.333 16.992c-3.9551 4.0527-6.6895 7.0312-8.2031 8.9355v4.1016c3.5645-0.19531 8.1055-0.3418 13.623-0.43945 10.059-0.19531 17.212-0.29297 21.46-0.29297l0.21486 1.27e-4c3.4334 0.003985 10.027 0.1016 19.78 0.29284 4.4434 0.097656 8.3984 0.24414 11.865 0.43945z"/>
<path d="m87.565 126.91c1.3359 0 2.6133-0.21094 3.832-0.63281 1.6406-0.53906 3.4336-1.4297 5.3789-2.6719 1.2891-0.82031 3.1758-2.2383 5.6602-4.2539l-0.52734-1.5469c-2.25 1.5938-3.8086 2.6484-4.6758 3.1641-1.4297 0.82031-2.6895 1.4004-3.7793 1.7402-1.0898 0.33984-2.1504 0.50976-3.1816 0.50976-2.1797 0-3.832-0.90234-4.957-2.707-0.82031-1.2891-1.2305-3.1758-1.2305-5.6602 0-3.1172 0.66797-6.7969 2.0039-11.039 1.0781-3.4219 2.3496-5.7305 3.8145-6.9258 1.4648-1.1953 3.3926-1.793 5.7832-1.793 1.3359 0 2.502 0.1875 3.498 0.5625 0.99609 0.375 1.6465 0.78516 1.9512 1.2305 0.25781 0.35156 0.38672 0.92578 0.38672 1.7227l-0.035156 3.832h1.6523c0.42188-3.4219 0.96094-6.4453 1.6172-9.0703-0.84375-0.63281-1.7695-1.1016-2.7773-1.4062-1.0078-0.30469-2.1094-0.45703-3.3047-0.45703-1.5938 0-3.1992 0.35156-4.8164 1.0547-3.1406 1.3359-5.8359 2.9414-8.0859 4.8164-1.1016 0.91406-2.1973 2.2793-3.2871 4.0957-1.0898 1.8164-1.9746 4.0898-2.6543 6.8203s-1.0195 5.3848-1.0195 7.9629c0 2.4141 0.36328 4.4414 1.0898 6.082s1.7637 2.8125 3.1113 3.5156c1.3477 0.70312 2.8652 1.0547 4.5527 1.0547zm26.248 0.24609c2.1328 0 4.0957-0.44531 5.8887-1.3359s3.4688-1.9863 5.0273-3.2871c1.5586-1.3008 2.7188-2.7012 3.4805-4.2012 0.76172-1.5 1.1426-3.082 1.1426-4.7461 0-1.4062-0.35156-2.6133-1.0547-3.6211s-1.7344-1.7812-3.0938-2.3203c-0.91406-0.35156-2.7305-0.73242-5.4492-1.1426-2.7188-0.41016-4.5117-1.0488-5.3789-1.916-0.89062-0.84375-1.3359-1.9805-1.3359-3.4102 0-1.8047 0.67383-3.3398 2.0215-4.6055s3.123-1.8984 5.3262-1.8984c1.3828 0 2.6309 0.22266 3.7441 0.66797 1.1133 0.44531 2.0801 1.125 2.9004 2.0391 0.046875 0.96094 0.082032 2.4023 0.10547 4.3242h1.6523c0.30469-3 0.50391-4.7578 0.59766-5.2734 0.14062-0.84375 0.375-1.8164 0.70312-2.918-1.0312-0.60938-2.1387-1.0605-3.3223-1.3535-1.1836-0.29297-2.4551-0.43945-3.8145-0.43945-1.3828 0-2.5957 0.16406-3.6387 0.49219-1.043 0.32812-2.2676 0.91406-3.6738 1.7578s-2.6309 1.752-3.6738 2.7246c-1.043 0.97266-1.8281 2.0215-2.3555 3.1465-0.52734 1.125-0.79102 2.3555-0.79102 3.6914 0 1.4297 0.31055 2.7012 0.93164 3.8145 0.62109 1.1133 1.4707 1.9395 2.5488 2.4785s3.0938 1.0312 6.0469 1.4766c2.0625 0.30469 3.4102 0.60352 4.043 0.89648 0.63281 0.29297 1.1543 0.81445 1.5645 1.5645 0.41016 0.75 0.61524 1.6406 0.61524 2.6719 0 1.4531-0.33398 2.7949-1.002 4.0254-0.66797 1.2305-1.6465 2.1855-2.9355 2.8652-1.2891 0.67969-2.7188 1.0195-4.2891 1.0195-1.2891 0-2.5664-0.25781-3.832-0.77344-0.96094-0.39844-2.0039-1.0547-3.1289-1.9688l0.035156-5.9062h-1.7578c-0.09375 1.5234-0.23438 2.8828-0.42188 4.0781-0.1875 1.1953-0.55078 3-1.0898 5.4141 1.5234 0.72656 2.8594 1.2363 4.0078 1.5293 1.1484 0.29297 2.3672 0.43945 3.6562 0.43945zm27.62 0c2.1328 0 4.0957-0.44531 5.8887-1.3359 1.793-0.89062 3.4688-1.9863 5.0273-3.2871 1.5586-1.3008 2.7188-2.7012 3.4805-4.2012s1.1426-3.082 1.1426-4.7461c0-1.4062-0.35156-2.6133-1.0547-3.6211s-1.7344-1.7812-3.0938-2.3203c-0.91406-0.35156-2.7305-0.73242-5.4492-1.1426-2.7188-0.41016-4.5117-1.0488-5.3789-1.916-0.89062-0.84375-1.3359-1.9805-1.3359-3.4102 0-1.8047 0.67383-3.3398 2.0215-4.6055 1.3477-1.2656 3.123-1.8984 5.3262-1.8984 1.3828 0 2.6309 0.22266 3.7441 0.66797s2.0801 1.125 2.9004 2.0391c0.046875 0.96094 0.082031 2.4023 0.10547 4.3242h1.6523c0.30469-3 0.50391-4.7578 0.59766-5.2734 0.14062-0.84375 0.375-1.8164 0.70312-2.918-1.0312-0.60938-2.1387-1.0605-3.3223-1.3535-1.1836-0.29297-2.4551-0.43945-3.8145-0.43945-1.3828 0-2.5957 0.16406-3.6387 0.49219-1.043 0.32812-2.2676 0.91406-3.6738 1.7578s-2.6309 1.752-3.6738 2.7246c-1.043 0.97266-1.8281 2.0215-2.3555 3.1465-0.52734 1.125-0.79102 2.3555-0.79102 3.6914 0 1.4297 0.31055 2.7012 0.93164 3.8145 0.62109 1.1133 1.4707 1.9395 2.5488 2.4785s3.0938 1.0312 6.0469 1.4766c2.0625 0.30469 3.4102 0.60352 4.043 0.89648 0.63281 0.29297 1.1543 0.81445 1.5645 1.5645 0.41016 0.75 0.61523 1.6406 0.61523 2.6719 0 1.4531-0.33398 2.7949-1.002 4.0254-0.66797 1.2305-1.6465 2.1855-2.9355 2.8652-1.2891 0.67969-2.7188 1.0195-4.2891 1.0195-1.2891 0-2.5664-0.25781-3.832-0.77344-0.96094-0.39844-2.0039-1.0547-3.1289-1.9688l0.035156-5.9062h-1.7578c-0.09375 1.5234-0.23438 2.8828-0.42188 4.0781-0.1875 1.1953-0.55078 3-1.0898 5.4141 1.5234 0.72656 2.8594 1.2363 4.0078 1.5293 1.1484 0.29297 2.3672 0.43945 3.6562 0.43945z"/>
</g>
</g>
</svg>
