<?xml version="1.0" encoding="UTF-8"?>
<svg width="354px" height="134px" viewBox="0 0 354 134" version="1.1" xmlns="http://www.w3.org/2000/svg" xmlns:xlink="http://www.w3.org/1999/xlink">
    <title>picoPhp logo</title>
    <g id="Page-1" stroke="none" stroke-width="1" fill="none" fill-rule="evenodd">
        <path d="M7.79078947,131.35 C14.0907895,116.65 20.5407895,103.75 27.1407895,91.45 C30.5907895,99.55 37.9407895,103.6 49.7907895,103.6 C62.2407895,103.6 74.8407895,99.4 81.5907895,87.25 C84.1407895,82.75 83.9907895,78.55 83.6907895,77.05 C83.0907895,74.05 79.9407895,73.3 78.1407895,76.75 C73.7907895,85.45 65.2407895,95.35 54.1407895,97.6 C58.9407895,93.7 63.8907895,86.95 67.4907895,78.7 C70.9407895,71.5 73.3407895,63.85 73.3407895,57.4 C73.3407895,49.75 68.8622537,43.3255758 59.9907895,41.65 C52.2578125,40.1894531 41.5535156,42.4094727 38.8535156,45.7094727 C29.5535156,58.1594727 6.44078947,100.75 2.09078947,115 C0.740789474,119.2 0.290789474,122.35 0.290789474,124.75 C0.290789474,127.9 1.04078947,130 3.29078947,132.85 C4.79078947,134.65 6.59078947,134.05 7.79078947,131.35 Z M287.790789,131.35 C294.090789,116.65 300.540789,103.75 307.140789,91.45 C310.590789,99.55 322.570007,105.374078 330.096539,99.6913809 C337.623071,94.0086835 343.890789,86.95 347.490789,78.7 C350.940789,71.5 353.340789,63.85 353.340789,57.4 C353.340789,49.75 348.862254,43.3255758 339.990789,41.65 C332.257813,40.1894531 321.553516,42.4094727 318.853516,45.7094727 C309.553516,58.1594727 286.440789,100.75 282.090789,115 C280.740789,119.2 280.290789,122.35 280.290789,124.75 C280.290789,127.9 281.040789,130 283.290789,132.85 C284.790789,134.65 286.590789,134.05 287.790789,131.35 Z M37.6407895,93.25 C33.7407895,93.25 32.6907895,82.45 37.3407895,72.85 L42.1407895,64.75 C48.5907895,53.8 56.8407895,46.9 59.5407895,48.1 C60.2907895,48.4 60.5907895,50.2 60.5907895,52.9 C60.5907895,57.85 58.7907895,65.5 55.1907895,72.55 C49.0407895,85 42.2907895,93.25 37.6407895,93.25 Z M104.943421,43 C108.693421,43 110.943421,39.55 110.943421,35.5 C110.943421,31.15 106.893421,25.75 102.693421,25.75 C99.2434211,25.75 96.0934211,29.65 96.0934211,33.85 C96.0934211,38.5 100.143421,43 104.943421,43 Z M83.4934211,102.25 C92.3434211,102.25 102.693421,95.95 107.193421,86.5 C109.143421,82.6 109.293421,78.85 107.943421,76.3 C106.593421,73.6 104.643421,73.3 103.443421,76 C98.7934211,86.2 90.9934211,96.25 84.9934211,96.25 C83.3434211,96.25 82.7434211,94.9 82.7434211,92.5 C82.7434211,90.1 83.4934211,86.95 84.8434211,83.5 C87.3934211,77.5 94.2934211,66.25 97.1434211,59.8 C101.043421,52.3 99.8434211,45.85 96.9934211,42.85 C95.0434211,40.6 93.2434211,40.9 90.9934211,43.9 C85.4434211,51.7 75.8434211,69.1 72.0934211,79.6 C70.8934211,83.5 70.2934211,86.65 70.2934211,89.5 C70.2934211,97 74.3434211,102.25 83.4934211,102.25 Z M119.746053,102.25 C131.446053,102.1 143.596053,94.75 149.296053,85.75 C151.996053,81.55 151.996053,77.65 151.246053,75.7 C150.346053,73.15 148.096053,73.75 146.746053,76 C140.746053,85 130.396053,96.55 119.146053,96.4 C115.096053,96.25 112.396053,92.2 112.396053,85.6 C112.396053,81.1 113.896053,74.95 116.896053,68.8 C122.896053,56.65 132.646053,46.9 134.446053,48.4 C135.046053,49 133.996053,51.7 132.496053,54.7 C129.796053,60.85 129.046053,63.85 129.046053,65.8 C129.046053,69.85 131.596053,72.7 134.296053,74.35 C137.296053,75.85 138.646053,75.55 139.696053,72.7 C140.296053,71.05 141.196053,68.8 142.396053,66.55 C145.246053,60.7 147.646053,55.15 145.396053,50.2 C142.996053,45.7 136.696053,40.6 131.146053,40.6 C122.446053,40.6 110.596053,48.7 102.946053,64.15 C99.7960526,70.15 98.2960526,76.15 98.2960526,81.55 C98.2960526,93.55 105.946053,102.4 119.746053,102.25 Z M160.348684,102.25 C162.598684,102.25 164.398684,101.8 165.748684,101.35 C177.148684,97.45 186.748684,82.75 189.898684,70.3 C199.164307,70.3 206.111572,60.55 190.798684,65.35 C192.148684,52.6 187.948684,51.55 183.748684,46.6 C180.898684,42.7 178.198684,41.05 173.848684,41.05 C163.948684,41.05 154.498684,48.55 147.748684,60.55 C143.848684,67.6 141.448684,74.95 141.448684,81.55 C141.448684,86.35 142.798684,90.85 145.648684,94.6 C149.848684,100.15 155.398684,102.25 160.348684,102.25 Z M179.548684,62.35 C177.898684,60.4 177.148684,56.5 177.148684,53.8 C177.148684,51.4 178.498684,50.2 179.398684,50.2 C180.448684,50.2 181.648684,51.1 181.648684,53.35 C181.648684,55.3 181.048684,58.9 179.548684,62.35 Z M156.748684,94.6 C154.498684,94.6 153.148684,92.8 153.148684,88.3 C153.148684,82.75 155.548684,74.35 159.448684,67.15 C161.998684,62.65 164.848684,58.9 167.998684,55.9 C169.198684,61.15 172.348684,65.05 177.148684,68.05 C176.248684,71.2 174.448684,74.95 172.198684,78.85 C166.648684,89.05 160.648684,94.6 156.748684,94.6 Z M192.701316,100 C197.501316,88.45 202.301316,78.85 206.351316,71.05 C208.751316,71.95 211.901316,72.25 216.401316,71.65 C235.151316,69.1 251.051316,56.8 258.551316,45.1 C263.801316,37.15 266.651316,29.65 263.201316,19.15 C259.601316,8.2 252.251316,6.1 244.001316,6.4 C238.301316,6.7 233.051316,8.05 227.651316,10 C222.101316,11.95 219.848535,17.0128906 216.401316,22.7128906 C203.918945,44.2197266 190.151316,72.25 186.401316,85.15 C185.651316,87.85 185.351316,90.55 185.351316,92.65 C185.351316,96.4 186.551316,98.8 188.201316,100.6 C190.301316,102.7 191.501316,102.7 192.701316,100 Z M212.201316,59.8 C221.433105,40.1333008 228.307617,27.4731445 231.905762,23.0380859 C236.989258,19.15 245.651316,18.1 249.101316,18.1 C251.051316,18.1 253.301316,19.15 253.901316,21.1 C256.601316,31.15 242.051316,53.05 212.201316,59.8 Z M283.253947,102.4 C292.853947,102.4 302.603947,94.9 306.953947,86.2 C309.203947,81.7 308.153947,78.25 307.403947,76.45 C306.203947,73.9 303.803947,74.2 302.753947,76.45 C298.253947,85.6 290.303947,96.25 285.053947,96.25 C282.953947,96.25 282.203947,94.3 282.203947,91.15 C282.203947,88.75 282.803947,85.6 284.153947,82.3 C285.803947,78.7 289.553947,72.4 297.803947,57.7 C299.003947,55.6 299.453947,53.5 299.453947,51.4 C299.453947,45.55 295.103947,40.9 290.753947,40.9 C287.903947,40.9 282.653947,42.7 278.153947,46 C279.653947,43.9 288.953947,29.95 291.953947,25 C295.553947,18.7 297.353947,13.15 297.353947,9.1 C297.353947,7 296.903947,5.05 296.153947,3.4 C294.803947,0.4 292.553947,-0.2 290.153947,2.8 C278.003947,18.4 248.303947,68.65 242.303947,84.4 C238.553947,94.3 240.653947,97.9 243.053947,100.75 C244.853947,103 247.103947,102.55 248.303947,99.85 C251.903947,90.85 257.303947,80.5 262.403947,72.1 C270.353947,59.2 284.603947,49.75 285.953947,49.75 C287.003947,49.75 284.753947,53.35 281.903947,58.3 C276.203947,67.15 268.853947,80.2 268.853947,89.65 C268.853947,97.45 273.353947,102.4 283.253947,102.4 Z M316.656579,93.25 C312.756579,93.25 311.706579,82.45 316.356579,72.85 L321.156579,64.75 C327.606579,53.8 335.856579,46.9 338.556579,48.1 C339.306579,48.4 339.606579,50.2 339.606579,52.9 C339.606579,57.85 337.806579,65.5 334.206579,72.55 C328.056579,85 321.306579,93.25 316.656579,93.25 Z" id="picoPhp" fill="#551A8B" fill-rule="nonzero"></path>
    </g>
</svg>